<mxfile host="app.diagrams.net" modified="2022-05-11T10:12:38.881Z" agent="5.0 (Macintosh; Intel Mac OS X 10_15_7) AppleWebKit/537.36 (KHTML, like Gecko) Chrome/78.0.3904.108 Safari/537.36" etag="NM5q-e_ZQlNB2cptB-MT" version="18.0.2" type="github">
  <diagram id="wFE0QG_FPsp0jaGvCLVb" name="Page-1">
    <mxGraphModel dx="860" dy="521" grid="1" gridSize="10" guides="1" tooltips="1" connect="1" arrows="1" fold="1" page="1" pageScale="1" pageWidth="850" pageHeight="1100" math="0" shadow="0">
      <root>
        <mxCell id="0" />
        <mxCell id="1" parent="0" />
        <mxCell id="NsM7H4fsBOIml_j-Qu_d-109" value="" style="rounded=1;whiteSpace=wrap;html=1;dashed=1;dashPattern=1 1;fillColor=#dae8fc;gradientColor=#7ea6e0;strokeColor=#6c8ebf;gradientDirection=north;glass=1;shadow=0;sketch=0;arcSize=16;" vertex="1" parent="1">
          <mxGeometry x="30" y="40" width="1040" height="980" as="geometry" />
        </mxCell>
        <mxCell id="NsM7H4fsBOIml_j-Qu_d-59" value="" style="rounded=1;whiteSpace=wrap;html=1;dashed=1;dashPattern=1 1;align=left;fillColor=#d5e8d4;strokeColor=#82b366;gradientColor=#97d077;" vertex="1" parent="1">
          <mxGeometry x="121" y="388.19" width="760" height="310" as="geometry" />
        </mxCell>
        <mxCell id="jzkBfL2sS72XlxoqL9Gl-1" value="" style="rounded=1;whiteSpace=wrap;html=1;align=left;dashed=1;fillColor=#d5e8d4;strokeColor=#82b366;gradientColor=#97d077;" parent="1" vertex="1">
          <mxGeometry x="121" y="148" width="760" height="60" as="geometry" />
        </mxCell>
        <mxCell id="jzkBfL2sS72XlxoqL9Gl-3" value="商城中心" style="rounded=0;whiteSpace=wrap;html=1;fontSize=13;fillColor=#fff2cc;strokeColor=#d6b656;aspect=fixed;" parent="1" vertex="1">
          <mxGeometry x="132" y="158" width="80" height="40" as="geometry" />
        </mxCell>
        <mxCell id="jzkBfL2sS72XlxoqL9Gl-5" value="太阳码分享" style="rounded=0;whiteSpace=wrap;html=1;fontSize=13;fillColor=#fff2cc;strokeColor=#d6b656;aspect=fixed;" parent="1" vertex="1">
          <mxGeometry x="581" y="158" width="80" height="40" as="geometry" />
        </mxCell>
        <mxCell id="jzkBfL2sS72XlxoqL9Gl-6" value="H5插件" style="rounded=0;whiteSpace=wrap;html=1;fontSize=13;fillColor=#fff2cc;strokeColor=#d6b656;aspect=fixed;" parent="1" vertex="1">
          <mxGeometry x="465" y="158" width="80" height="40" as="geometry" />
        </mxCell>
        <mxCell id="jzkBfL2sS72XlxoqL9Gl-7" value="集采中心" style="rounded=0;whiteSpace=wrap;html=1;fontSize=13;fillColor=#fff2cc;strokeColor=#d6b656;aspect=fixed;" parent="1" vertex="1">
          <mxGeometry x="696" y="158" width="80" height="40" as="geometry" />
        </mxCell>
        <mxCell id="jzkBfL2sS72XlxoqL9Gl-8" value="销售通" style="rounded=0;whiteSpace=wrap;html=1;fontSize=13;fillColor=#fff2cc;strokeColor=#d6b656;aspect=fixed;" parent="1" vertex="1">
          <mxGeometry x="241" y="158" width="80" height="40" as="geometry" />
        </mxCell>
        <mxCell id="jzkBfL2sS72XlxoqL9Gl-9" value="合作方入口" style="rounded=0;whiteSpace=wrap;html=1;fontSize=13;fillColor=#fff2cc;strokeColor=#d6b656;aspect=fixed;" parent="1" vertex="1">
          <mxGeometry x="355" y="158" width="80" height="40" as="geometry" />
        </mxCell>
        <mxCell id="jzkBfL2sS72XlxoqL9Gl-11" value="" style="rounded=1;whiteSpace=wrap;html=1;fontSize=13;align=left;fillColor=#fff2cc;strokeColor=#d6b656;dashed=1;gradientColor=#ffd966;" parent="1" vertex="1">
          <mxGeometry x="121" y="258" width="760" height="120" as="geometry" />
        </mxCell>
        <mxCell id="jzkBfL2sS72XlxoqL9Gl-16" value="api网关" style="rounded=1;whiteSpace=wrap;html=1;fontSize=13;fillColor=#ffe6cc;strokeColor=#d79b00;dashed=1;" parent="1" vertex="1">
          <mxGeometry x="681" y="218" width="200" height="30" as="geometry" />
        </mxCell>
        <mxCell id="jzkBfL2sS72XlxoqL9Gl-17" value="商户网关" style="rounded=1;whiteSpace=wrap;html=1;fontSize=13;fillColor=#ffe6cc;strokeColor=#d79b00;dashed=1;" parent="1" vertex="1">
          <mxGeometry x="596" y="218" width="80" height="30" as="geometry" />
        </mxCell>
        <mxCell id="jzkBfL2sS72XlxoqL9Gl-23" value="RPC" style="rounded=1;whiteSpace=wrap;html=1;fontSize=13;fillColor=#ffe6cc;strokeColor=#d79b00;dashed=1;" parent="1" vertex="1">
          <mxGeometry x="121" y="218" width="460" height="30" as="geometry" />
        </mxCell>
        <mxCell id="jzkBfL2sS72XlxoqL9Gl-24" value="收单中心" style="rounded=1;whiteSpace=wrap;html=1;fontSize=13;align=left;fillColor=#d5e8d4;strokeColor=#82b366;dashed=1;aspect=fixed;" parent="1" vertex="1">
          <mxGeometry x="147" y="403.31" width="150" height="131.25" as="geometry" />
        </mxCell>
        <mxCell id="jzkBfL2sS72XlxoqL9Gl-26" value="交易中心" style="rounded=1;whiteSpace=wrap;html=1;fontSize=13;align=left;fillColor=#d5e8d4;strokeColor=#82b366;dashed=1;aspect=fixed;" parent="1" vertex="1">
          <mxGeometry x="327.5" y="404" width="150" height="131.25" as="geometry" />
        </mxCell>
        <mxCell id="jzkBfL2sS72XlxoqL9Gl-27" value="商品中心" style="rounded=1;whiteSpace=wrap;html=1;fontSize=13;align=left;fillColor=#d5e8d4;strokeColor=#82b366;dashed=1;aspect=fixed;" parent="1" vertex="1">
          <mxGeometry x="524" y="404" width="150" height="131.25" as="geometry" />
        </mxCell>
        <mxCell id="jzkBfL2sS72XlxoqL9Gl-29" value="订单中心" style="rounded=0;whiteSpace=wrap;html=1;fontSize=13;fillColor=#f8cecc;strokeColor=#b85450;" parent="1" vertex="1">
          <mxGeometry x="202" y="415.31" width="80" height="20" as="geometry" />
        </mxCell>
        <mxCell id="jzkBfL2sS72XlxoqL9Gl-30" value="收单中心" style="rounded=0;whiteSpace=wrap;html=1;fontSize=13;fillColor=#ffcccc;strokeColor=#36393d;" parent="1" vertex="1">
          <mxGeometry x="141" y="268" width="90" height="40" as="geometry" />
        </mxCell>
        <mxCell id="jzkBfL2sS72XlxoqL9Gl-31" value="商户店铺" style="rounded=0;whiteSpace=wrap;html=1;fontSize=13;fillColor=#ffcccc;strokeColor=#36393d;" parent="1" vertex="1">
          <mxGeometry x="570" y="268" width="90" height="40" as="geometry" />
        </mxCell>
        <mxCell id="jzkBfL2sS72XlxoqL9Gl-33" value="商品中心" style="rounded=0;whiteSpace=wrap;html=1;fontSize=13;fillColor=#ffcccc;strokeColor=#36393d;" parent="1" vertex="1">
          <mxGeometry x="426" y="268" width="90" height="40" as="geometry" />
        </mxCell>
        <mxCell id="jzkBfL2sS72XlxoqL9Gl-35" value="购物车" style="rounded=0;whiteSpace=wrap;html=1;fontSize=13;fillColor=#f8cecc;strokeColor=#b85450;" parent="1" vertex="1">
          <mxGeometry x="201" y="451.31" width="80" height="20" as="geometry" />
        </mxCell>
        <mxCell id="jzkBfL2sS72XlxoqL9Gl-36" value="商品搜索" style="rounded=0;whiteSpace=wrap;html=1;fontSize=13;fillColor=#f8cecc;strokeColor=#b85450;" parent="1" vertex="1">
          <mxGeometry x="202" y="490.18" width="80" height="20" as="geometry" />
        </mxCell>
        <mxCell id="jzkBfL2sS72XlxoqL9Gl-43" value="收款" style="rounded=0;whiteSpace=wrap;html=1;fontSize=13;fillColor=#f8cecc;strokeColor=#b85450;" parent="1" vertex="1">
          <mxGeometry x="388.5" y="420.40999999999997" width="80" height="20" as="geometry" />
        </mxCell>
        <mxCell id="jzkBfL2sS72XlxoqL9Gl-44" value="退款" style="rounded=0;whiteSpace=wrap;html=1;fontSize=13;fillColor=#f8cecc;strokeColor=#b85450;" parent="1" vertex="1">
          <mxGeometry x="389.5" y="458.63" width="80" height="20" as="geometry" />
        </mxCell>
        <mxCell id="jzkBfL2sS72XlxoqL9Gl-45" value="分账" style="rounded=0;whiteSpace=wrap;html=1;fontSize=13;fillColor=#f8cecc;strokeColor=#b85450;" parent="1" vertex="1">
          <mxGeometry x="389.5" y="499.13" width="80" height="20" as="geometry" />
        </mxCell>
        <mxCell id="jzkBfL2sS72XlxoqL9Gl-46" value="自营商品" style="rounded=0;whiteSpace=wrap;html=1;fontSize=13;fillColor=#f8cecc;strokeColor=#b85450;" parent="1" vertex="1">
          <mxGeometry x="587.5" y="414" width="80" height="20" as="geometry" />
        </mxCell>
        <mxCell id="jzkBfL2sS72XlxoqL9Gl-47" value="益丰商品" style="rounded=0;whiteSpace=wrap;html=1;fontSize=13;fillColor=#f8cecc;strokeColor=#b85450;" parent="1" vertex="1">
          <mxGeometry x="587.5" y="455.97" width="80" height="20" as="geometry" />
        </mxCell>
        <mxCell id="jzkBfL2sS72XlxoqL9Gl-48" value="自建仓储" style="rounded=0;whiteSpace=wrap;html=1;fontSize=13;fillColor=#f8cecc;strokeColor=#b85450;" parent="1" vertex="1">
          <mxGeometry x="587.5" y="495.97" width="80" height="20" as="geometry" />
        </mxCell>
        <mxCell id="jzkBfL2sS72XlxoqL9Gl-56" value="内部依赖" style="rounded=1;whiteSpace=wrap;html=1;fontSize=13;align=left;fillColor=#dae8fc;strokeColor=#6c8ebf;gradientColor=#7ea6e0;" parent="1" vertex="1">
          <mxGeometry x="121" y="708" width="760" height="40" as="geometry" />
        </mxCell>
        <mxCell id="jzkBfL2sS72XlxoqL9Gl-58" value="激活中心" style="rounded=0;whiteSpace=wrap;html=1;fontSize=13;fillColor=#d5e8d4;strokeColor=#82b366;" parent="1" vertex="1">
          <mxGeometry x="222" y="718" width="90" height="20" as="geometry" />
        </mxCell>
        <mxCell id="jzkBfL2sS72XlxoqL9Gl-68" value="" style="rounded=1;whiteSpace=wrap;html=1;fontSize=13;fillColor=#dae8fc;strokeColor=#6c8ebf;gradientColor=#7ea6e0;" parent="1" vertex="1">
          <mxGeometry x="891" y="148" width="120" height="800" as="geometry" />
        </mxCell>
        <mxCell id="jzkBfL2sS72XlxoqL9Gl-69" value="公共组件" style="text;html=1;strokeColor=none;fillColor=none;align=center;verticalAlign=middle;whiteSpace=wrap;rounded=0;fontSize=13;" parent="1" vertex="1">
          <mxGeometry x="921" y="158" width="60" height="30" as="geometry" />
        </mxCell>
        <mxCell id="jzkBfL2sS72XlxoqL9Gl-70" value="告警中心" style="rounded=0;whiteSpace=wrap;html=1;fontSize=13;" parent="1" vertex="1">
          <mxGeometry x="906" y="218" width="85" height="30" as="geometry" />
        </mxCell>
        <mxCell id="jzkBfL2sS72XlxoqL9Gl-71" value="权限控制" style="rounded=0;whiteSpace=wrap;html=1;fontSize=13;" parent="1" vertex="1">
          <mxGeometry x="906" y="271" width="85" height="30" as="geometry" />
        </mxCell>
        <mxCell id="jzkBfL2sS72XlxoqL9Gl-72" value="会员中心" style="rounded=0;whiteSpace=wrap;html=1;fontSize=13;" parent="1" vertex="1">
          <mxGeometry x="906" y="325.5" width="85" height="32.5" as="geometry" />
        </mxCell>
        <mxCell id="jzkBfL2sS72XlxoqL9Gl-73" value="定时任务" style="rounded=0;whiteSpace=wrap;html=1;fontSize=13;" parent="1" vertex="1">
          <mxGeometry x="906" y="381.5" width="85" height="37.5" as="geometry" />
        </mxCell>
        <mxCell id="jzkBfL2sS72XlxoqL9Gl-74" value="消息中心" style="rounded=0;whiteSpace=wrap;html=1;fontSize=13;" parent="1" vertex="1">
          <mxGeometry x="906" y="440.65" width="85" height="33.81" as="geometry" />
        </mxCell>
        <mxCell id="jzkBfL2sS72XlxoqL9Gl-75" value="日志中心" style="rounded=0;whiteSpace=wrap;html=1;fontSize=13;" parent="1" vertex="1">
          <mxGeometry x="906" y="495.97" width="85" height="40" as="geometry" />
        </mxCell>
        <mxCell id="jzkBfL2sS72XlxoqL9Gl-76" value="nacos" style="rounded=0;whiteSpace=wrap;html=1;fontSize=13;" parent="1" vertex="1">
          <mxGeometry x="906" y="555.97" width="85" height="40" as="geometry" />
        </mxCell>
        <mxCell id="NsM7H4fsBOIml_j-Qu_d-3" value="交易中心" style="rounded=0;whiteSpace=wrap;html=1;fontSize=13;fillColor=#ffcccc;strokeColor=#36393d;" vertex="1" parent="1">
          <mxGeometry x="281" y="268" width="90" height="40" as="geometry" />
        </mxCell>
        <mxCell id="NsM7H4fsBOIml_j-Qu_d-5" value="优惠券中心" style="rounded=0;whiteSpace=wrap;html=1;fontSize=13;fillColor=#ffcccc;strokeColor=#36393d;" vertex="1" parent="1">
          <mxGeometry x="141" y="328" width="90" height="40" as="geometry" />
        </mxCell>
        <mxCell id="NsM7H4fsBOIml_j-Qu_d-6" value="积分中心" style="rounded=0;whiteSpace=wrap;html=1;fontSize=13;fillColor=#ffcccc;strokeColor=#36393d;" vertex="1" parent="1">
          <mxGeometry x="281" y="328" width="90" height="40" as="geometry" />
        </mxCell>
        <mxCell id="NsM7H4fsBOIml_j-Qu_d-9" value="商品供应商&lt;br&gt;中心" style="rounded=0;whiteSpace=wrap;html=1;fontSize=13;fillColor=#ffcccc;strokeColor=#36393d;" vertex="1" parent="1">
          <mxGeometry x="715" y="268" width="90" height="40" as="geometry" />
        </mxCell>
        <mxCell id="NsM7H4fsBOIml_j-Qu_d-10" value="地址服务" style="rounded=0;whiteSpace=wrap;html=1;fontSize=13;fillColor=#ffcccc;strokeColor=#36393d;" vertex="1" parent="1">
          <mxGeometry x="426" y="328" width="90" height="40" as="geometry" />
        </mxCell>
        <mxCell id="NsM7H4fsBOIml_j-Qu_d-18" value="商户店铺" style="rounded=1;whiteSpace=wrap;html=1;fontSize=13;align=left;fillColor=#d5e8d4;strokeColor=#82b366;dashed=1;aspect=fixed;" vertex="1" parent="1">
          <mxGeometry x="716.5" y="404.18" width="150" height="131.25" as="geometry" />
        </mxCell>
        <mxCell id="NsM7H4fsBOIml_j-Qu_d-19" value="优惠券" style="rounded=1;whiteSpace=wrap;html=1;fontSize=13;align=left;fillColor=#d5e8d4;strokeColor=#82b366;dashed=1;aspect=fixed;" vertex="1" parent="1">
          <mxGeometry x="147" y="544.06" width="150" height="131.25" as="geometry" />
        </mxCell>
        <mxCell id="NsM7H4fsBOIml_j-Qu_d-20" value="积分中心" style="rounded=1;whiteSpace=wrap;html=1;fontSize=13;align=left;fillColor=#d5e8d4;strokeColor=#82b366;dashed=1;aspect=fixed;" vertex="1" parent="1">
          <mxGeometry x="327.5" y="546.06" width="150" height="131.25" as="geometry" />
        </mxCell>
        <mxCell id="NsM7H4fsBOIml_j-Qu_d-21" value="商户管理" style="rounded=0;whiteSpace=wrap;html=1;fontSize=13;fillColor=#f8cecc;strokeColor=#b85450;" vertex="1" parent="1">
          <mxGeometry x="776" y="413.46000000000004" width="80" height="20" as="geometry" />
        </mxCell>
        <mxCell id="NsM7H4fsBOIml_j-Qu_d-22" value="自营店管理" style="rounded=0;whiteSpace=wrap;html=1;fontSize=13;fillColor=#f8cecc;strokeColor=#b85450;" vertex="1" parent="1">
          <mxGeometry x="776" y="456.33000000000004" width="80" height="20" as="geometry" />
        </mxCell>
        <mxCell id="NsM7H4fsBOIml_j-Qu_d-25" value="优惠券配置" style="rounded=0;whiteSpace=wrap;html=1;fontSize=13;fillColor=#f8cecc;strokeColor=#b85450;" vertex="1" parent="1">
          <mxGeometry x="204" y="556.4300000000001" width="80" height="20" as="geometry" />
        </mxCell>
        <mxCell id="NsM7H4fsBOIml_j-Qu_d-26" value="优惠券发放" style="rounded=0;whiteSpace=wrap;html=1;fontSize=13;fillColor=#f8cecc;strokeColor=#b85450;" vertex="1" parent="1">
          <mxGeometry x="204" y="588.6700000000001" width="80" height="20" as="geometry" />
        </mxCell>
        <mxCell id="NsM7H4fsBOIml_j-Qu_d-27" value="优惠券消费" style="rounded=0;whiteSpace=wrap;html=1;fontSize=13;fillColor=#f8cecc;strokeColor=#b85450;" vertex="1" parent="1">
          <mxGeometry x="204" y="646.31" width="80" height="25" as="geometry" />
        </mxCell>
        <mxCell id="NsM7H4fsBOIml_j-Qu_d-29" value="积分消费" style="rounded=0;whiteSpace=wrap;html=1;fontSize=13;fillColor=#f8cecc;strokeColor=#b85450;" vertex="1" parent="1">
          <mxGeometry x="387.5" y="588" width="80" height="20" as="geometry" />
        </mxCell>
        <mxCell id="NsM7H4fsBOIml_j-Qu_d-30" value="积分账户" style="rounded=0;whiteSpace=wrap;html=1;fontSize=13;fillColor=#f8cecc;strokeColor=#b85450;" vertex="1" parent="1">
          <mxGeometry x="387.5" y="616.96" width="80" height="20" as="geometry" />
        </mxCell>
        <mxCell id="NsM7H4fsBOIml_j-Qu_d-38" value="优惠券计算" style="rounded=0;whiteSpace=wrap;html=1;fontSize=13;fillColor=#f8cecc;strokeColor=#b85450;" vertex="1" parent="1">
          <mxGeometry x="204" y="619.31" width="80" height="20" as="geometry" />
        </mxCell>
        <mxCell id="NsM7H4fsBOIml_j-Qu_d-39" value="积分回收" style="rounded=0;whiteSpace=wrap;html=1;fontSize=13;fillColor=#f8cecc;strokeColor=#b85450;" vertex="1" parent="1">
          <mxGeometry x="386.5" y="644.96" width="80" height="20" as="geometry" />
        </mxCell>
        <mxCell id="NsM7H4fsBOIml_j-Qu_d-42" value="供应商店管理" style="rounded=0;whiteSpace=wrap;html=1;fontSize=13;fillColor=#f8cecc;strokeColor=#b85450;" vertex="1" parent="1">
          <mxGeometry x="776" y="496.33000000000004" width="80" height="20" as="geometry" />
        </mxCell>
        <mxCell id="NsM7H4fsBOIml_j-Qu_d-44" value="商品供应商" style="rounded=1;whiteSpace=wrap;html=1;fontSize=13;align=left;fillColor=#d5e8d4;strokeColor=#82b366;dashed=1;aspect=fixed;" vertex="1" parent="1">
          <mxGeometry x="522.5" y="546.06" width="150" height="131.25" as="geometry" />
        </mxCell>
        <mxCell id="NsM7H4fsBOIml_j-Qu_d-45" value="益丰系统" style="rounded=0;whiteSpace=wrap;html=1;fontSize=13;fillColor=#f8cecc;strokeColor=#b85450;" vertex="1" parent="1">
          <mxGeometry x="585.5" y="567.45" width="80" height="20" as="geometry" />
        </mxCell>
        <mxCell id="NsM7H4fsBOIml_j-Qu_d-46" value="时空仓储" style="rounded=0;whiteSpace=wrap;html=1;fontSize=13;fillColor=#f8cecc;strokeColor=#b85450;" vertex="1" parent="1">
          <mxGeometry x="585.5" y="636.3299999999999" width="80" height="20" as="geometry" />
        </mxCell>
        <mxCell id="NsM7H4fsBOIml_j-Qu_d-52" value="基础配置中心" style="rounded=0;whiteSpace=wrap;html=1;fontSize=13;fillColor=#ffcccc;strokeColor=#36393d;" vertex="1" parent="1">
          <mxGeometry x="570" y="331.16999999999996" width="90" height="40" as="geometry" />
        </mxCell>
        <mxCell id="NsM7H4fsBOIml_j-Qu_d-53" value="通用存储" style="rounded=0;whiteSpace=wrap;html=1;fontSize=13;fillColor=#ffcccc;strokeColor=#36393d;" vertex="1" parent="1">
          <mxGeometry x="715" y="331.16999999999996" width="90" height="40" as="geometry" />
        </mxCell>
        <mxCell id="NsM7H4fsBOIml_j-Qu_d-56" value="地址服务" style="rounded=1;whiteSpace=wrap;html=1;fontSize=13;align=left;fillColor=#d5e8d4;strokeColor=#82b366;dashed=1;aspect=fixed;" vertex="1" parent="1">
          <mxGeometry x="715.5" y="546.06" width="150" height="131.25" as="geometry" />
        </mxCell>
        <mxCell id="NsM7H4fsBOIml_j-Qu_d-57" value="地址管理" style="rounded=0;whiteSpace=wrap;html=1;fontSize=13;fillColor=#f8cecc;strokeColor=#b85450;" vertex="1" parent="1">
          <mxGeometry x="773.5" y="568.45" width="80" height="20" as="geometry" />
        </mxCell>
        <mxCell id="NsM7H4fsBOIml_j-Qu_d-58" value="地址搜索" style="rounded=0;whiteSpace=wrap;html=1;fontSize=13;fillColor=#f8cecc;strokeColor=#b85450;" vertex="1" parent="1">
          <mxGeometry x="773.5" y="637.3299999999999" width="80" height="20" as="geometry" />
        </mxCell>
        <mxCell id="NsM7H4fsBOIml_j-Qu_d-60" value="卡中心" style="rounded=0;whiteSpace=wrap;html=1;fontSize=13;fillColor=#d5e8d4;strokeColor=#82b366;" vertex="1" parent="1">
          <mxGeometry x="320" y="718" width="90" height="20" as="geometry" />
        </mxCell>
        <mxCell id="NsM7H4fsBOIml_j-Qu_d-61" value="权益中心" style="rounded=0;whiteSpace=wrap;html=1;fontSize=13;fillColor=#d5e8d4;strokeColor=#82b366;" vertex="1" parent="1">
          <mxGeometry x="417" y="718" width="90" height="20" as="geometry" />
        </mxCell>
        <mxCell id="NsM7H4fsBOIml_j-Qu_d-63" value="业务员中心" style="rounded=0;whiteSpace=wrap;html=1;fontSize=13;fillColor=#d5e8d4;strokeColor=#82b366;" vertex="1" parent="1">
          <mxGeometry x="517" y="718" width="90" height="20" as="geometry" />
        </mxCell>
        <mxCell id="NsM7H4fsBOIml_j-Qu_d-64" value="产品中心" style="rounded=0;whiteSpace=wrap;html=1;fontSize=13;fillColor=#d5e8d4;strokeColor=#82b366;" vertex="1" parent="1">
          <mxGeometry x="620" y="718" width="90" height="20" as="geometry" />
        </mxCell>
        <mxCell id="NsM7H4fsBOIml_j-Qu_d-65" value="第三方系统" style="rounded=1;whiteSpace=wrap;html=1;fontSize=13;align=left;fillColor=#dae8fc;strokeColor=#6c8ebf;gradientColor=#7ea6e0;" vertex="1" parent="1">
          <mxGeometry x="121" y="756" width="760" height="62" as="geometry" />
        </mxCell>
        <mxCell id="NsM7H4fsBOIml_j-Qu_d-66" value="支付宝" style="rounded=0;whiteSpace=wrap;html=1;fontSize=13;fillColor=#d5e8d4;strokeColor=#82b366;" vertex="1" parent="1">
          <mxGeometry x="221" y="761.5" width="90" height="20" as="geometry" />
        </mxCell>
        <mxCell id="NsM7H4fsBOIml_j-Qu_d-67" value="微信" style="rounded=0;whiteSpace=wrap;html=1;fontSize=13;fillColor=#d5e8d4;strokeColor=#82b366;" vertex="1" parent="1">
          <mxGeometry x="318" y="761.5" width="90" height="20" as="geometry" />
        </mxCell>
        <mxCell id="NsM7H4fsBOIml_j-Qu_d-68" value="拉卡拉" style="rounded=0;whiteSpace=wrap;html=1;fontSize=13;fillColor=#d5e8d4;strokeColor=#82b366;" vertex="1" parent="1">
          <mxGeometry x="416" y="761.5" width="90" height="20" as="geometry" />
        </mxCell>
        <mxCell id="NsM7H4fsBOIml_j-Qu_d-69" value="快递100" style="rounded=0;whiteSpace=wrap;html=1;fontSize=13;fillColor=#d5e8d4;strokeColor=#82b366;" vertex="1" parent="1">
          <mxGeometry x="516" y="761.5" width="90" height="20" as="geometry" />
        </mxCell>
        <mxCell id="NsM7H4fsBOIml_j-Qu_d-70" value="益丰大药房" style="rounded=0;whiteSpace=wrap;html=1;fontSize=13;fillColor=#d5e8d4;strokeColor=#82b366;" vertex="1" parent="1">
          <mxGeometry x="619" y="761.5" width="90" height="20" as="geometry" />
        </mxCell>
        <mxCell id="NsM7H4fsBOIml_j-Qu_d-71" value="海王星辰" style="rounded=0;whiteSpace=wrap;html=1;fontSize=13;fillColor=#d5e8d4;strokeColor=#82b366;" vertex="1" parent="1">
          <mxGeometry x="726" y="761.5" width="90" height="20" as="geometry" />
        </mxCell>
        <mxCell id="NsM7H4fsBOIml_j-Qu_d-72" value="叮当快药" style="rounded=0;whiteSpace=wrap;html=1;fontSize=13;fillColor=#d5e8d4;strokeColor=#82b366;" vertex="1" parent="1">
          <mxGeometry x="548" y="792.5" width="90" height="20" as="geometry" />
        </mxCell>
        <mxCell id="NsM7H4fsBOIml_j-Qu_d-73" value="高德" style="rounded=0;whiteSpace=wrap;html=1;fontSize=13;fillColor=#d5e8d4;strokeColor=#82b366;" vertex="1" parent="1">
          <mxGeometry x="231" y="792.5" width="90" height="20" as="geometry" />
        </mxCell>
        <mxCell id="NsM7H4fsBOIml_j-Qu_d-74" value="时空仓储" style="rounded=0;whiteSpace=wrap;html=1;fontSize=13;fillColor=#d5e8d4;strokeColor=#82b366;" vertex="1" parent="1">
          <mxGeometry x="654" y="792.5" width="90" height="20" as="geometry" />
        </mxCell>
        <mxCell id="NsM7H4fsBOIml_j-Qu_d-75" value="华润三九" style="rounded=0;whiteSpace=wrap;html=1;fontSize=13;fillColor=#d5e8d4;strokeColor=#82b366;" vertex="1" parent="1">
          <mxGeometry x="438" y="792.5" width="90" height="20" as="geometry" />
        </mxCell>
        <mxCell id="NsM7H4fsBOIml_j-Qu_d-85" value="基础软件" style="rounded=1;whiteSpace=wrap;html=1;fontSize=13;align=left;fillColor=#dae8fc;strokeColor=#6c8ebf;gradientColor=#7ea6e0;" vertex="1" parent="1">
          <mxGeometry x="121" y="828" width="757.5" height="70" as="geometry" />
        </mxCell>
        <mxCell id="NsM7H4fsBOIml_j-Qu_d-87" value="数据库" style="rounded=0;whiteSpace=wrap;html=1;fontSize=13;fillColor=#dae8fc;gradientColor=#7ea6e0;strokeColor=#6c8ebf;" vertex="1" parent="1">
          <mxGeometry x="222" y="838" width="75" height="50" as="geometry" />
        </mxCell>
        <mxCell id="NsM7H4fsBOIml_j-Qu_d-88" value="分布式缓存" style="rounded=0;whiteSpace=wrap;html=1;fontSize=13;fillColor=#dae8fc;gradientColor=#7ea6e0;strokeColor=#6c8ebf;" vertex="1" parent="1">
          <mxGeometry x="327.5" y="838" width="75" height="50" as="geometry" />
        </mxCell>
        <mxCell id="NsM7H4fsBOIml_j-Qu_d-89" value="文件服务" style="rounded=0;whiteSpace=wrap;html=1;fontSize=13;fillColor=#dae8fc;gradientColor=#7ea6e0;strokeColor=#6c8ebf;" vertex="1" parent="1">
          <mxGeometry x="435" y="838" width="75" height="50" as="geometry" />
        </mxCell>
        <mxCell id="NsM7H4fsBOIml_j-Qu_d-90" value="消息队列" style="rounded=0;whiteSpace=wrap;html=1;fontSize=13;fillColor=#dae8fc;gradientColor=#7ea6e0;strokeColor=#6c8ebf;" vertex="1" parent="1">
          <mxGeometry x="545" y="838" width="75" height="50" as="geometry" />
        </mxCell>
        <mxCell id="NsM7H4fsBOIml_j-Qu_d-91" value="分布式ID生成器" style="rounded=0;whiteSpace=wrap;html=1;fontSize=13;" vertex="1" parent="1">
          <mxGeometry x="906" y="617.31" width="85" height="40" as="geometry" />
        </mxCell>
        <mxCell id="NsM7H4fsBOIml_j-Qu_d-92" value="大数据服务" style="rounded=0;whiteSpace=wrap;html=1;fontSize=13;fillColor=#dae8fc;gradientColor=#7ea6e0;strokeColor=#6c8ebf;" vertex="1" parent="1">
          <mxGeometry x="652.5" y="838" width="75" height="50" as="geometry" />
        </mxCell>
        <mxCell id="NsM7H4fsBOIml_j-Qu_d-93" value="搜索中心" style="rounded=0;whiteSpace=wrap;html=1;fontSize=13;" vertex="1" parent="1">
          <mxGeometry x="906" y="680.3100000000001" width="85" height="40" as="geometry" />
        </mxCell>
        <mxCell id="NsM7H4fsBOIml_j-Qu_d-101" value="钉钉系统" style="rounded=0;whiteSpace=wrap;html=1;fontSize=13;fillColor=#d5e8d4;strokeColor=#82b366;" vertex="1" parent="1">
          <mxGeometry x="333" y="792.5" width="90" height="20" as="geometry" />
        </mxCell>
        <mxCell id="NsM7H4fsBOIml_j-Qu_d-102" value="积分发放" style="rounded=0;whiteSpace=wrap;html=1;fontSize=13;fillColor=#f8cecc;strokeColor=#b85450;" vertex="1" parent="1">
          <mxGeometry x="387.5" y="555.45" width="80" height="20" as="geometry" />
        </mxCell>
        <mxCell id="NsM7H4fsBOIml_j-Qu_d-103" value="接&lt;br&gt;入&lt;br&gt;层" style="rounded=1;whiteSpace=wrap;html=1;dashed=1;dashPattern=1 1;fillColor=#d5e8d4;strokeColor=#82b366;gradientColor=#97d077;" vertex="1" parent="1">
          <mxGeometry x="68" y="148" width="40" height="100" as="geometry" />
        </mxCell>
        <mxCell id="NsM7H4fsBOIml_j-Qu_d-104" value="产&lt;br&gt;品&lt;br&gt;应&lt;br&gt;用&lt;br&gt;层" style="rounded=1;whiteSpace=wrap;html=1;dashed=1;dashPattern=1 1;fillColor=#fff2cc;strokeColor=#d6b656;gradientColor=#ffd966;" vertex="1" parent="1">
          <mxGeometry x="68" y="258" width="40" height="120" as="geometry" />
        </mxCell>
        <mxCell id="NsM7H4fsBOIml_j-Qu_d-105" value="业&lt;br&gt;务&lt;br&gt;中&lt;br&gt;台" style="rounded=1;whiteSpace=wrap;html=1;dashed=1;dashPattern=1 1;fillColor=#d5e8d4;strokeColor=#82b366;gradientColor=#97d077;" vertex="1" parent="1">
          <mxGeometry x="68" y="388" width="40" height="310" as="geometry" />
        </mxCell>
        <mxCell id="NsM7H4fsBOIml_j-Qu_d-106" value="基&lt;br&gt;础&lt;br&gt;设&lt;br&gt;施&lt;br&gt;层" style="rounded=1;whiteSpace=wrap;html=1;dashed=1;dashPattern=1 1;fillColor=#dae8fc;strokeColor=#6c8ebf;gradientColor=#7ea6e0;" vertex="1" parent="1">
          <mxGeometry x="68" y="708" width="40" height="240" as="geometry" />
        </mxCell>
        <mxCell id="NsM7H4fsBOIml_j-Qu_d-108" value="硬件层" style="rounded=1;whiteSpace=wrap;html=1;fontSize=13;align=center;fillColor=#f5f5f5;strokeColor=#666666;gradientColor=#b3b3b3;" vertex="1" parent="1">
          <mxGeometry x="121" y="908" width="757.5" height="40" as="geometry" />
        </mxCell>
        <mxCell id="NsM7H4fsBOIml_j-Qu_d-111" value="&lt;font color=&quot;#330000&quot;&gt;商城中心&lt;/font&gt;" style="rounded=1;whiteSpace=wrap;html=1;shadow=0;glass=1;dashed=1;dashPattern=1 1;sketch=0;fontSize=19;fillColor=#CCE5FF;gradientDirection=north;strokeColor=#D4E1F5;fontColor=#ffffff;" vertex="1" parent="1">
          <mxGeometry x="468" y="60" width="120" height="60" as="geometry" />
        </mxCell>
      </root>
    </mxGraphModel>
  </diagram>
</mxfile>
